<svg width="426" height="274" viewBox="0 0 426 274" fill="none" xmlns="http://www.w3.org/2000/svg">
<path d="M96 110V123.714H82.2857V110H96ZM96 96.2857V110H82.2857V96.2857H96ZM82.2857 96.2857V110H68.5714V96.2857H82.2857ZM82.2857 110V123.714H68.5714V110H82.2857ZM82.2857 123.714V137.429H68.5714V123.714H82.2857ZM82.2857 137.429V151.143H68.5714V137.429H82.2857ZM82.2857 151.143V164.857H68.5714V151.143H82.2857ZM96 151.143V164.857H82.2857V151.143H96ZM96 137.429V151.143H82.2857V137.429H96ZM96 123.714V137.429H82.2857V123.714H96ZM96 164.857V178.571H82.2857V164.857H96ZM82.2857 164.857V178.571H68.5714V164.857H82.2857ZM82.2857 178.571V192.286H68.5714V178.571H82.2857ZM82.2857 192.286V206H68.5714V192.286H82.2857ZM96 192.286V206H82.2857V192.286H96ZM96 178.571V192.286H82.2857V178.571H96ZM27.4286 192.286V206H13.7143V192.286H27.4286ZM13.7143 178.571V192.286H0V178.571H13.7143ZM13.7143 164.857V178.571H0V164.857H13.7143ZM13.7143 151.143V164.857H0V151.143H13.7143ZM13.7143 137.429V151.143H0V137.429H13.7143ZM13.7143 123.714V137.429H0V123.714H13.7143ZM13.7143 110V123.714H0V110H13.7143ZM27.4286 137.429V151.143H13.7143V137.429H27.4286ZM27.4286 151.143V164.857H13.7143V151.143H27.4286ZM27.4286 164.857V178.571H13.7143V164.857H27.4286ZM27.4286 178.571V192.286H13.7143V178.571H27.4286ZM27.4286 123.714V137.429H13.7143V123.714H27.4286ZM41.1429 110V123.714H27.4286V110H41.1429ZM41.1429 96.2857V110H27.4286V96.2857H41.1429ZM27.4286 96.2857V110H13.7143V96.2857H27.4286ZM27.4286 110V123.714H13.7143V110H27.4286ZM54.8571 96.2857V110H41.1429V96.2857H54.8571ZM96 68.8571V82.5714H82.2857V68.8571H96ZM82.2857 68.8571V82.5714H68.5714V68.8571H82.2857ZM82.2857 82.5714V96.2857H68.5714V82.5714H82.2857ZM96 82.5714V96.2857H82.2857V82.5714H96ZM54.8571 192.286V206H41.1429V192.286H54.8571ZM41.1429 192.286V206H27.4286V192.286H41.1429ZM41.1429 178.571V192.286H27.4286V178.571H41.1429ZM54.8571 178.571V192.286H41.1429V178.571H54.8571ZM68.5714 178.571V192.286H54.8571V178.571H68.5714ZM68.5714 96.2857V110H54.8571V96.2857H68.5714ZM68.5714 110V123.714H54.8571V110H68.5714ZM54.8571 110V123.714H41.1429V110H54.8571ZM109.75 68.8571H137.179V96.2857H109.75V68.8571ZM109.75 110H137.179V206H109.75V110ZM205.857 178.571H219.571V192.286H205.857V178.571ZM205.857 192.286H219.571V206H205.857V192.286ZM192.143 192.286H205.857V206H192.143V192.286ZM192.143 178.571H205.857V192.286H192.143V178.571ZM178.429 192.286H192.143V206H178.429V192.286ZM178.429 178.571H192.143V192.286H178.429V178.571ZM164.714 178.571H178.429V192.286H164.714V178.571ZM164.714 164.857H178.429V178.571H164.714V164.857ZM164.714 151.143H178.429V164.857H164.714V151.143ZM164.714 137.429H178.429V151.143H164.714V137.429ZM164.714 123.714H178.429V137.429H164.714V123.714ZM164.714 110H178.429V123.714H164.714V110ZM178.429 151.143H192.143V164.857H178.429V151.143ZM178.429 164.857H192.143V178.571H178.429V164.857ZM178.429 137.429H192.143V151.143H178.429V137.429ZM178.429 123.714H192.143V137.429H178.429V123.714ZM178.429 68.8571H192.143V82.5714H178.429V68.8571ZM178.429 82.5714H192.143V96.2857H178.429V82.5714ZM178.429 96.2857H192.143V110H178.429V96.2857ZM178.429 110H192.143V123.714H178.429V110ZM164.714 96.2857H178.429V110H164.714V96.2857ZM151 110H164.714V123.714H151V110ZM192.143 110H205.857V123.714H192.143V110ZM205.857 110H219.571V123.714H205.857V110ZM164.714 82.5714H178.429V96.2857H164.714V82.5714ZM151 123.714H164.714V137.429H151V123.714ZM192.143 123.714H205.857V137.429H192.143V123.714ZM205.857 123.714H219.571V137.429H205.857V123.714ZM288.107 178.571H301.821V192.286H288.107V178.571ZM288.107 192.286H301.821V206H288.107V192.286ZM274.393 192.286H288.107V206H274.393V192.286ZM274.393 178.571H288.107V192.286H274.393V178.571ZM260.679 192.286H274.393V206H260.679V192.286ZM260.679 178.571H274.393V192.286H260.679V178.571ZM246.964 178.571H260.679V192.286H246.964V178.571ZM246.964 164.857H260.679V178.571H246.964V164.857ZM246.964 151.143H260.679V164.857H246.964V151.143ZM246.964 137.429H260.679V151.143H246.964V137.429ZM246.964 123.714H260.679V137.429H246.964V123.714ZM246.964 110H260.679V123.714H246.964V110ZM260.679 151.143H274.393V164.857H260.679V151.143ZM260.679 164.857H274.393V178.571H260.679V164.857ZM260.679 137.429H274.393V151.143H260.679V137.429ZM260.679 123.714H274.393V137.429H260.679V123.714ZM260.679 68.8571H274.393V82.5714H260.679V68.8571ZM260.679 82.5714H274.393V96.2857H260.679V82.5714ZM260.679 96.2857H274.393V110H260.679V96.2857ZM260.679 110H274.393V123.714H260.679V110ZM246.964 96.2857H260.679V110H246.964V96.2857ZM233.25 110H246.964V123.714H233.25V110ZM274.393 110H288.107V123.714H274.393V110ZM288.107 110H301.821V123.714H288.107V110ZM246.964 82.5714H260.679V96.2857H246.964V82.5714ZM233.25 123.714H246.964V137.429H233.25V123.714ZM274.393 123.714H288.107V137.429H274.393V123.714ZM288.107 123.714H301.821V137.429H288.107V123.714ZM342.929 96.2857H356.643V110H342.929V96.2857ZM329.214 96.2857H342.929V110H329.214V96.2857ZM329.214 110H342.929V123.714H329.214V110ZM342.929 110H356.643V123.714H342.929V110ZM356.643 96.2857H370.357V110H356.643V96.2857ZM370.357 96.2857H384.071V110H370.357V96.2857ZM384.071 96.2857H397.786V110H384.071V96.2857ZM384.071 110H397.786V123.714H384.071V110ZM370.357 110H384.071V123.714H370.357V110ZM384.071 137.429H397.786V151.143H384.071V137.429ZM397.786 110H411.5V123.714H397.786V110ZM397.786 123.714H411.5V137.429H397.786V123.714ZM397.786 137.429H411.5V151.143H397.786V137.429ZM397.786 151.143H411.5V164.857H397.786V151.143ZM397.786 164.857H411.5V178.571H397.786V164.857ZM397.786 178.571H411.5V192.286H397.786V178.571ZM384.071 178.571H397.786V192.286H384.071V178.571ZM384.071 164.857H397.786V178.571H384.071V164.857ZM384.071 151.143H397.786V164.857H384.071V151.143ZM384.071 123.714H397.786V137.429H384.071V123.714ZM370.357 178.571H384.071V192.286H370.357V178.571ZM384.071 192.286H397.786V206H384.071V192.286ZM370.357 192.286H384.071V206H370.357V192.286ZM356.643 192.286H370.357V206H356.643V192.286ZM342.929 192.286H356.643V206H342.929V192.286ZM329.214 192.286H342.929V206H329.214V192.286ZM329.214 178.571H342.929V192.286H329.214V178.571ZM342.929 178.571H356.643V192.286H342.929V178.571ZM329.214 164.857H342.929V178.571H329.214V164.857ZM315.5 178.571H329.214V192.286H315.5V178.571ZM315.5 164.857H329.214V178.571H315.5V164.857ZM315.5 151.143H329.214V164.857H315.5V151.143ZM315.5 137.429H329.214V151.143H315.5V137.429ZM315.5 123.714H329.214V137.429H315.5V123.714ZM315.5 110H329.214V123.714H315.5V110ZM329.214 123.714H342.929V137.429H329.214V123.714ZM329.214 137.429H342.929V151.143H329.214V137.429ZM329.214 151.143H342.929V164.857H329.214V151.143ZM356.643 178.571H370.357V192.286H356.643V178.571ZM356.643 110H370.357V123.714H356.643V110Z" fill="black"/>
</svg>
