<svg width="677" height="274" viewBox="0 0 677 274" fill="none" xmlns="http://www.w3.org/2000/svg">
<path d="M112 35.5C121.24 35.5 130.48 35.5 140 35.5C140 37.81 140 40.12 140 42.5C142.31 42.5 144.62 42.5 147 42.5C147 44.81 147 47.12 147 49.5C151.62 49.5 156.24 49.5 161 49.5C161 47.19 161 44.88 161 42.5C170.24 42.5 179.48 42.5 189 42.5C189 44.81 189 47.12 189 49.5C191.31 49.5 193.62 49.5 196 49.5C196 51.81 196 54.12 196 56.5C198.31 56.5 200.62 56.5 203 56.5C203 61.12 203 65.74 203 70.5C205.31 70.5 207.62 70.5 210 70.5C210 72.81 210 75.12 210 77.5C212.31 77.5 214.62 77.5 217 77.5C217 79.81 217 82.12 217 84.5C221.62 84.5 226.24 84.5 231 84.5C231 86.81 231 89.12 231 91.5C233.31 91.5 235.62 91.5 238 91.5C238 93.81 238 96.12 238 98.5C240.31 98.5 242.62 98.5 245 98.5C245 107.74 245 116.98 245 126.5C242.69 126.5 240.38 126.5 238 126.5C238 128.81 238 131.12 238 133.5C240.31 133.5 242.62 133.5 245 133.5C245 138.12 245 142.74 245 147.5C247.31 147.5 249.62 147.5 252 147.5C252 152.12 252 156.74 252 161.5C254.31 161.5 256.62 161.5 259 161.5C259 163.81 259 166.12 259 168.5C261.31 168.5 263.62 168.5 266 168.5C266 170.81 266 173.12 266 175.5C268.31 175.5 270.62 175.5 273 175.5C273 182.43 273 189.36 273 196.5C270.69 196.5 268.38 196.5 266 196.5C266 198.81 266 201.12 266 203.5C263.69 203.5 261.38 203.5 259 203.5C259 205.81 259 208.12 259 210.5C254.38 210.5 249.76 210.5 245 210.5C245 212.81 245 215.12 245 217.5C235.76 217.5 226.52 217.5 217 217.5C217 215.19 217 212.88 217 210.5C210.07 210.5 203.14 210.5 196 210.5C196 212.81 196 215.12 196 217.5C193.69 217.5 191.38 217.5 189 217.5C189 219.81 189 222.12 189 224.5C184.38 224.5 179.76 224.5 175 224.5C175 226.81 175 229.12 175 231.5C144.97 231.5 114.94 231.5 84 231.5C84 229.19 84 226.88 84 224.5C79.38 224.5 74.76 224.5 70 224.5C70 222.19 70 219.88 70 217.5C67.69 217.5 65.38 217.5 63 217.5C63 215.19 63 212.88 63 210.5C56.07 210.5 49.14 210.5 42 210.5C42 212.81 42 215.12 42 217.5C37.38 217.5 32.76 217.5 28 217.5C28 215.19 28 212.88 28 210.5C23.38 210.5 18.76 210.5 14 210.5C14 208.19 14 205.88 14 203.5C11.69 203.5 9.38 203.5 7 203.5C7 198.88 7 194.26 7 189.5C4.69 189.5 2.38 189.5 0 189.5C0 184.88 0 180.26 0 175.5C2.31 175.5 4.62 175.5 7 175.5C7 170.88 7 166.26 7 161.5C9.31 161.5 11.62 161.5 14 161.5C14 159.19 14 156.88 14 154.5C16.31 154.5 18.62 154.5 21 154.5C21 152.19 21 149.88 21 147.5C23.31 147.5 25.62 147.5 28 147.5C28 142.88 28 138.26 28 133.5C30.31 133.5 32.62 133.5 35 133.5C35 124.26 35 115.02 35 105.5C32.69 105.5 30.38 105.5 28 105.5C28 100.88 28 96.26 28 91.5C25.69 91.5 23.38 91.5 21 91.5C21 84.57 21 77.64 21 70.5C23.31 70.5 25.62 70.5 28 70.5C28 68.19 28 65.88 28 63.5C30.31 63.5 32.62 63.5 35 63.5C35 61.19 35 58.88 35 56.5C53.48 56.5 71.96 56.5 91 56.5C91 54.19 91 51.88 91 49.5C95.62 49.5 100.24 49.5 105 49.5C105 47.19 105 44.88 105 42.5C107.31 42.5 109.62 42.5 112 42.5C112 40.19 112 37.88 112 35.5Z" fill="#00BCD4"/>
<path d="M224 126.5C228.62 126.5 233.24 126.5 238 126.5C238 128.81 238 131.12 238 133.5C240.31 133.5 242.62 133.5 245 133.5C245 138.12 245 142.74 245 147.5C247.31 147.5 249.62 147.5 252 147.5C252 152.12 252 156.74 252 161.5C254.31 161.5 256.62 161.5 259 161.5C259 163.81 259 166.12 259 168.5C261.31 168.5 263.62 168.5 266 168.5C266 170.81 266 173.12 266 175.5C268.31 175.5 270.62 175.5 273 175.5C273 182.43 273 189.36 273 196.5C270.69 196.5 268.38 196.5 266 196.5C266 198.81 266 201.12 266 203.5C263.69 203.5 261.38 203.5 259 203.5C259 205.81 259 208.12 259 210.5C254.38 210.5 249.76 210.5 245 210.5C245 212.81 245 215.12 245 217.5C235.76 217.5 226.52 217.5 217 217.5C217 215.19 217 212.88 217 210.5C210.07 210.5 203.14 210.5 196 210.5C196 212.81 196 215.12 196 217.5C193.69 217.5 191.38 217.5 189 217.5C189 219.81 189 222.12 189 224.5C184.38 224.5 179.76 224.5 175 224.5C175 226.81 175 229.12 175 231.5C144.97 231.5 114.94 231.5 84 231.5C84 229.19 84 226.88 84 224.5C79.38 224.5 74.76 224.5 70 224.5C70 222.19 70 219.88 70 217.5C67.69 217.5 65.38 217.5 63 217.5C63 215.19 63 212.88 63 210.5C56.07 210.5 49.14 210.5 42 210.5C42 212.81 42 215.12 42 217.5C37.38 217.5 32.76 217.5 28 217.5C28 215.19 28 212.88 28 210.5C23.38 210.5 18.76 210.5 14 210.5C14 208.19 14 205.88 14 203.5C11.69 203.5 9.38 203.5 7 203.5C7 198.88 7 194.26 7 189.5C4.69 189.5 2.38 189.5 0 189.5C0 184.88 0 180.26 0 175.5C2.31 175.5 4.62 175.5 7 175.5C7 170.88 7 166.26 7 161.5C9.31 161.5 11.62 161.5 14 161.5C14 159.19 14 156.88 14 154.5C16.31 154.5 18.62 154.5 21 154.5C21 156.81 21 159.12 21 161.5C23.31 161.5 25.62 161.5 28 161.5C28 163.81 28 166.12 28 168.5C32.62 168.5 37.24 168.5 42 168.5C42 170.81 42 173.12 42 175.5C55.86 175.5 69.72 175.5 84 175.5C84 177.81 84 180.12 84 182.5C88.62 182.5 93.24 182.5 98 182.5C98 184.81 98 187.12 98 189.5C104.93 189.5 111.86 189.5 119 189.5C119 187.19 119 184.88 119 182.5C121.31 182.5 123.62 182.5 126 182.5C126 180.19 126 177.88 126 175.5C128.31 175.5 130.62 175.5 133 175.5C133 177.81 133 180.12 133 182.5C135.31 182.5 137.62 182.5 140 182.5C140 184.81 140 187.12 140 189.5C142.31 189.5 144.62 189.5 147 189.5C147 187.19 147 184.88 147 182.5C149.31 182.5 151.62 182.5 154 182.5C154 184.81 154 187.12 154 189.5C156.31 189.5 158.62 189.5 161 189.5C161 187.19 161 184.88 161 182.5C163.31 182.5 165.62 182.5 168 182.5C168 184.81 168 187.12 168 189.5C170.31 189.5 172.62 189.5 175 189.5C175 187.19 175 184.88 175 182.5C177.31 182.5 179.62 182.5 182 182.5C182 180.19 182 177.88 182 175.5C186.62 175.5 191.24 175.5 196 175.5C196 173.19 196 170.88 196 168.5C198.31 168.5 200.62 168.5 203 168.5C203 166.19 203 163.88 203 161.5C205.31 161.5 207.62 161.5 210 161.5C210 159.19 210 156.88 210 154.5C212.31 154.5 214.62 154.5 217 154.5C217 152.19 217 149.88 217 147.5C214.69 147.5 212.38 147.5 210 147.5C210 145.19 210 142.88 210 140.5C212.31 140.5 214.62 140.5 217 140.5C217 138.19 217 135.88 217 133.5C219.31 133.5 221.62 133.5 224 133.5C224 131.19 224 128.88 224 126.5Z" fill="#009688"/>
<path d="M84 224.5C114.03 224.5 144.06 224.5 175 224.5C175 226.81 175 229.12 175 231.5C144.97 231.5 114.94 231.5 84 231.5C84 229.19 84 226.88 84 224.5Z" fill="black"/>
<path d="M196 56.5C198.31 56.5 200.62 56.5 203 56.5C203 61.12 203 65.74 203 70.5C205.31 70.5 207.62 70.5 210 70.5C210 72.81 210 75.12 210 77.5C212.31 77.5 214.62 77.5 217 77.5C217 79.81 217 82.12 217 84.5C210.07 84.5 203.14 84.5 196 84.5C196 86.81 196 89.12 196 91.5C193.69 91.5 191.38 91.5 189 91.5C189 89.19 189 86.88 189 84.5C186.69 84.5 184.38 84.5 182 84.5C182 79.88 182 75.26 182 70.5C186.62 70.5 191.24 70.5 196 70.5C196 65.88 196 61.26 196 56.5Z" fill="#009688"/>
<path d="M196 203.5C205.24 203.5 214.48 203.5 224 203.5C224 205.81 224 208.12 224 210.5C230.93 210.5 237.86 210.5 245 210.5C245 212.81 245 215.12 245 217.5C235.76 217.5 226.52 217.5 217 217.5C217 215.19 217 212.88 217 210.5C210.07 210.5 203.14 210.5 196 210.5C196 208.19 196 205.88 196 203.5Z" fill="black"/>
<path d="M35 56.5C53.48 56.5 71.96 56.5 91 56.5C91 58.81 91 61.12 91 63.5C72.52 63.5 54.04 63.5 35 63.5C35 61.19 35 58.88 35 56.5Z" fill="black"/>
<path d="M112 112.5C128.17 112.5 144.34 112.5 161 112.5C161 114.81 161 117.12 161 119.5C144.83 119.5 128.66 119.5 112 119.5C112 117.19 112 114.88 112 112.5Z" fill="black"/>
<path d="M42 203.5C51.24 203.5 60.48 203.5 70 203.5C70 208.12 70 212.74 70 217.5C67.69 217.5 65.38 217.5 63 217.5C63 215.19 63 212.88 63 210.5C56.07 210.5 49.14 210.5 42 210.5C42 208.19 42 205.88 42 203.5Z" fill="black"/>
<path d="M35 105.5C37.31 105.5 39.62 105.5 42 105.5C42 114.74 42 123.98 42 133.5C39.69 133.5 37.38 133.5 35 133.5C35 124.26 35 115.02 35 105.5Z" fill="black"/>
<path d="M238 98.5C240.31 98.5 242.62 98.5 245 98.5C245 107.74 245 116.98 245 126.5C242.69 126.5 240.38 126.5 238 126.5C238 117.26 238 108.02 238 98.5Z" fill="black"/>
<path d="M161 42.5C170.24 42.5 179.48 42.5 189 42.5C189 44.81 189 47.12 189 49.5C179.76 49.5 170.52 49.5 161 49.5C161 47.19 161 44.88 161 42.5Z" fill="black"/>
<path d="M112 35.5C121.24 35.5 130.48 35.5 140 35.5C140 37.81 140 40.12 140 42.5C130.76 42.5 121.52 42.5 112 42.5C112 40.19 112 37.88 112 35.5Z" fill="black"/>
<path d="M266 175.5C268.31 175.5 270.62 175.5 273 175.5C273 182.43 273 189.36 273 196.5C270.69 196.5 268.38 196.5 266 196.5C266 189.57 266 182.64 266 175.5Z" fill="black"/>
<path d="M91 105.5C97.93 105.5 104.86 105.5 112 105.5C112 107.81 112 110.12 112 112.5C105.07 112.5 98.14 112.5 91 112.5C91 110.19 91 107.88 91 105.5Z" fill="black"/>
<path d="M21 70.5C23.31 70.5 25.62 70.5 28 70.5C28 77.43 28 84.36 28 91.5C25.69 91.5 23.38 91.5 21 91.5C21 84.57 21 77.64 21 70.5Z" fill="black"/>
<path d="M175 217.5C179.62 217.5 184.24 217.5 189 217.5C189 219.81 189 222.12 189 224.5C184.38 224.5 179.76 224.5 175 224.5C175 222.19 175 219.88 175 217.5Z" fill="black"/>
<path d="M70 217.5C74.62 217.5 79.24 217.5 84 217.5C84 219.81 84 222.12 84 224.5C79.38 224.5 74.76 224.5 70 224.5C70 222.19 70 219.88 70 217.5Z" fill="black"/>
<path d="M28 210.5C32.62 210.5 37.24 210.5 42 210.5C42 212.81 42 215.12 42 217.5C37.38 217.5 32.76 217.5 28 217.5C28 215.19 28 212.88 28 210.5Z" fill="black"/>
<path d="M245 203.5C249.62 203.5 254.24 203.5 259 203.5C259 205.81 259 208.12 259 210.5C254.38 210.5 249.76 210.5 245 210.5C245 208.19 245 205.88 245 203.5Z" fill="black"/>
<path d="M14 203.5C18.62 203.5 23.24 203.5 28 203.5C28 205.81 28 208.12 28 210.5C23.38 210.5 18.76 210.5 14 210.5C14 208.19 14 205.88 14 203.5Z" fill="black"/>
<path d="M7 189.5C9.31 189.5 11.62 189.5 14 189.5C14 194.12 14 198.74 14 203.5C11.69 203.5 9.38 203.5 7 203.5C7 198.88 7 194.26 7 189.5Z" fill="black"/>
<path d="M0 175.5C2.31 175.5 4.62 175.5 7 175.5C7 180.12 7 184.74 7 189.5C4.69 189.5 2.38 189.5 0 189.5C0 184.88 0 180.26 0 175.5Z" fill="black"/>
<path d="M7 161.5C9.31 161.5 11.62 161.5 14 161.5C14 166.12 14 170.74 14 175.5C11.69 175.5 9.38 175.5 7 175.5C7 170.88 7 166.26 7 161.5Z" fill="black"/>
<path d="M245 147.5C247.31 147.5 249.62 147.5 252 147.5C252 152.12 252 156.74 252 161.5C249.69 161.5 247.38 161.5 245 161.5C245 156.88 245 152.26 245 147.5Z" fill="black"/>
<path d="M238 133.5C240.31 133.5 242.62 133.5 245 133.5C245 138.12 245 142.74 245 147.5C242.69 147.5 240.38 147.5 238 147.5C238 142.88 238 138.26 238 133.5Z" fill="black"/>
<path d="M28 133.5C30.31 133.5 32.62 133.5 35 133.5C35 138.12 35 142.74 35 147.5C32.69 147.5 30.38 147.5 28 147.5C28 142.88 28 138.26 28 133.5Z" fill="black"/>
<path d="M28 91.5C30.31 91.5 32.62 91.5 35 91.5C35 96.12 35 100.74 35 105.5C32.69 105.5 30.38 105.5 28 105.5C28 100.88 28 96.26 28 91.5Z" fill="black"/>
<path d="M217 84.5C221.62 84.5 226.24 84.5 231 84.5C231 86.81 231 89.12 231 91.5C226.38 91.5 221.76 91.5 217 91.5C217 89.19 217 86.88 217 84.5Z" fill="black"/>
<path d="M196 56.5C198.31 56.5 200.62 56.5 203 56.5C203 61.12 203 65.74 203 70.5C200.69 70.5 198.38 70.5 196 70.5C196 65.88 196 61.26 196 56.5Z" fill="black"/>
<path d="M147 49.5C151.62 49.5 156.24 49.5 161 49.5C161 51.81 161 54.12 161 56.5C156.38 56.5 151.76 56.5 147 56.5C147 54.19 147 51.88 147 49.5Z" fill="black"/>
<path d="M91 49.5C95.62 49.5 100.24 49.5 105 49.5C105 51.81 105 54.12 105 56.5C100.38 56.5 95.76 56.5 91 56.5C91 54.19 91 51.88 91 49.5Z" fill="black"/>
<path d="M189 210.5C191.31 210.5 193.62 210.5 196 210.5C196 212.81 196 215.12 196 217.5C193.69 217.5 191.38 217.5 189 217.5C189 215.19 189 212.88 189 210.5Z" fill="black"/>
<path d="M259 196.5C261.31 196.5 263.62 196.5 266 196.5C266 198.81 266 201.12 266 203.5C263.69 203.5 261.38 203.5 259 203.5C259 201.19 259 198.88 259 196.5Z" fill="black"/>
<path d="M168 175.5C170.31 175.5 172.62 175.5 175 175.5C175 177.81 175 180.12 175 182.5C172.69 182.5 170.38 182.5 168 182.5C168 180.19 168 177.88 168 175.5Z" fill="#009688"/>
<path d="M154 175.5C156.31 175.5 158.62 175.5 161 175.5C161 177.81 161 180.12 161 182.5C158.69 182.5 156.38 182.5 154 182.5C154 180.19 154 177.88 154 175.5Z" fill="#009688"/>
<path d="M140 175.5C142.31 175.5 144.62 175.5 147 175.5C147 177.81 147 180.12 147 182.5C144.69 182.5 142.38 182.5 140 182.5C140 180.19 140 177.88 140 175.5Z" fill="#009688"/>
<path d="M259 168.5C261.31 168.5 263.62 168.5 266 168.5C266 170.81 266 173.12 266 175.5C263.69 175.5 261.38 175.5 259 175.5C259 173.19 259 170.88 259 168.5Z" fill="black"/>
<path d="M175 168.5C177.31 168.5 179.62 168.5 182 168.5C182 170.81 182 173.12 182 175.5C179.69 175.5 177.38 175.5 175 175.5C175 173.19 175 170.88 175 168.5Z" fill="#009688"/>
<path d="M161 168.5C163.31 168.5 165.62 168.5 168 168.5C168 170.81 168 173.12 168 175.5C165.69 175.5 163.38 175.5 161 175.5C161 173.19 161 170.88 161 168.5Z" fill="#009688"/>
<path d="M147 168.5C149.31 168.5 151.62 168.5 154 168.5C154 170.81 154 173.12 154 175.5C151.69 175.5 149.38 175.5 147 175.5C147 173.19 147 170.88 147 168.5Z" fill="#009688"/>
<path d="M252 161.5C254.31 161.5 256.62 161.5 259 161.5C259 163.81 259 166.12 259 168.5C256.69 168.5 254.38 168.5 252 168.5C252 166.19 252 163.88 252 161.5Z" fill="black"/>
<path d="M14 154.5C16.31 154.5 18.62 154.5 21 154.5C21 156.81 21 159.12 21 161.5C18.69 161.5 16.38 161.5 14 161.5C14 159.19 14 156.88 14 154.5Z" fill="black"/>
<path d="M21 147.5C23.31 147.5 25.62 147.5 28 147.5C28 149.81 28 152.12 28 154.5C25.69 154.5 23.38 154.5 21 154.5C21 152.19 21 149.88 21 147.5Z" fill="black"/>
<path d="M231 126.5C233.31 126.5 235.62 126.5 238 126.5C238 128.81 238 131.12 238 133.5C235.69 133.5 233.38 133.5 231 133.5C231 131.19 231 128.88 231 126.5Z" fill="black"/>
<path d="M231 119.5C233.31 119.5 235.62 119.5 238 119.5C238 121.81 238 124.12 238 126.5C235.69 126.5 233.38 126.5 231 126.5C231 124.19 231 121.88 231 119.5Z" fill="#009688"/>
<path d="M84 98.5C86.31 98.5 88.62 98.5 91 98.5C91 100.81 91 103.12 91 105.5C88.69 105.5 86.38 105.5 84 105.5C84 103.19 84 100.88 84 98.5Z" fill="black"/>
<path d="M231 91.5C233.31 91.5 235.62 91.5 238 91.5C238 93.81 238 96.12 238 98.5C235.69 98.5 233.38 98.5 231 98.5C231 96.19 231 93.88 231 91.5Z" fill="black"/>
<path d="M154 91.5C156.31 91.5 158.62 91.5 161 91.5C161 93.81 161 96.12 161 98.5C158.69 98.5 156.38 98.5 154 98.5C154 96.19 154 93.88 154 91.5Z" fill="black"/>
<path d="M98 84.5C100.31 84.5 102.62 84.5 105 84.5C105 86.81 105 89.12 105 91.5C102.69 91.5 100.38 91.5 98 91.5C98 89.19 98 86.88 98 84.5Z" fill="black"/>
<path d="M210 77.5C212.31 77.5 214.62 77.5 217 77.5C217 79.81 217 82.12 217 84.5C214.69 84.5 212.38 84.5 210 84.5C210 82.19 210 79.88 210 77.5Z" fill="black"/>
<path d="M203 70.5C205.31 70.5 207.62 70.5 210 70.5C210 72.81 210 75.12 210 77.5C207.69 77.5 205.38 77.5 203 77.5C203 75.19 203 72.88 203 70.5Z" fill="black"/>
<path d="M28 63.5C30.31 63.5 32.62 63.5 35 63.5C35 65.81 35 68.12 35 70.5C32.69 70.5 30.38 70.5 28 70.5C28 68.19 28 65.88 28 63.5Z" fill="black"/>
<path d="M189 49.5C191.31 49.5 193.62 49.5 196 49.5C196 51.81 196 54.12 196 56.5C193.69 56.5 191.38 56.5 189 56.5C189 54.19 189 51.88 189 49.5Z" fill="black"/>
<path d="M140 42.5C142.31 42.5 144.62 42.5 147 42.5C147 44.81 147 47.12 147 49.5C144.69 49.5 142.38 49.5 140 49.5C140 47.19 140 44.88 140 42.5Z" fill="black"/>
<path d="M105 42.5C107.31 42.5 109.62 42.5 112 42.5C112 44.81 112 47.12 112 49.5C109.69 49.5 107.38 49.5 105 49.5C105 47.19 105 44.88 105 42.5Z" fill="black"/>
<path d="M347 110V123.714H333.286V110H347ZM347 96.2857V110H333.286V96.2857H347ZM333.286 96.2857V110H319.571V96.2857H333.286ZM333.286 110V123.714H319.571V110H333.286ZM333.286 123.714V137.429H319.571V123.714H333.286ZM333.286 137.429V151.143H319.571V137.429H333.286ZM333.286 151.143V164.857H319.571V151.143H333.286ZM347 151.143V164.857H333.286V151.143H347ZM347 137.429V151.143H333.286V137.429H347ZM347 123.714V137.429H333.286V123.714H347ZM347 164.857V178.571H333.286V164.857H347ZM333.286 164.857V178.571H319.571V164.857H333.286ZM333.286 178.571V192.286H319.571V178.571H333.286ZM333.286 192.286V206H319.571V192.286H333.286ZM347 192.286V206H333.286V192.286H347ZM347 178.571V192.286H333.286V178.571H347ZM278.429 192.286V206H264.714V192.286H278.429ZM264.714 178.571V192.286H251V178.571H264.714ZM264.714 164.857V178.571H251V164.857H264.714ZM264.714 151.143V164.857H251V151.143H264.714ZM264.714 137.429V151.143H251V137.429H264.714ZM264.714 123.714V137.429H251V123.714H264.714ZM264.714 110V123.714H251V110H264.714ZM278.429 137.429V151.143H264.714V137.429H278.429ZM278.429 151.143V164.857H264.714V151.143H278.429ZM278.429 164.857V178.571H264.714V164.857H278.429ZM278.429 178.571V192.286H264.714V178.571H278.429ZM278.429 123.714V137.429H264.714V123.714H278.429ZM292.143 110V123.714H278.429V110H292.143ZM292.143 96.2857V110H278.429V96.2857H292.143ZM278.429 96.2857V110H264.714V96.2857H278.429ZM278.429 110V123.714H264.714V110H278.429ZM305.857 96.2857V110H292.143V96.2857H305.857ZM347 68.8571V82.5714H333.286V68.8571H347ZM333.286 68.8571V82.5714H319.571V68.8571H333.286ZM333.286 82.5714V96.2857H319.571V82.5714H333.286ZM347 82.5714V96.2857H333.286V82.5714H347ZM305.857 192.286V206H292.143V192.286H305.857ZM292.143 192.286V206H278.429V192.286H292.143ZM292.143 178.571V192.286H278.429V178.571H292.143ZM305.857 178.571V192.286H292.143V178.571H305.857ZM319.571 178.571V192.286H305.857V178.571H319.571ZM319.571 96.2857V110H305.857V96.2857H319.571ZM319.571 110V123.714H305.857V110H319.571ZM305.857 110V123.714H292.143V110H305.857ZM360.75 68.8571H388.179V96.2857H360.75V68.8571ZM360.75 110H388.179V206H360.75V110ZM456.857 178.571H470.571V192.286H456.857V178.571ZM456.857 192.286H470.571V206H456.857V192.286ZM443.143 192.286H456.857V206H443.143V192.286ZM443.143 178.571H456.857V192.286H443.143V178.571ZM429.429 192.286H443.143V206H429.429V192.286ZM429.429 178.571H443.143V192.286H429.429V178.571ZM415.714 178.571H429.429V192.286H415.714V178.571ZM415.714 164.857H429.429V178.571H415.714V164.857ZM415.714 151.143H429.429V164.857H415.714V151.143ZM415.714 137.429H429.429V151.143H415.714V137.429ZM415.714 123.714H429.429V137.429H415.714V123.714ZM415.714 110H429.429V123.714H415.714V110ZM429.429 151.143H443.143V164.857H429.429V151.143ZM429.429 164.857H443.143V178.571H429.429V164.857ZM429.429 137.429H443.143V151.143H429.429V137.429ZM429.429 123.714H443.143V137.429H429.429V123.714ZM429.429 68.8571H443.143V82.5714H429.429V68.8571ZM429.429 82.5714H443.143V96.2857H429.429V82.5714ZM429.429 96.2857H443.143V110H429.429V96.2857ZM429.429 110H443.143V123.714H429.429V110ZM415.714 96.2857H429.429V110H415.714V96.2857ZM402 110H415.714V123.714H402V110ZM443.143 110H456.857V123.714H443.143V110ZM456.857 110H470.571V123.714H456.857V110ZM415.714 82.5714H429.429V96.2857H415.714V82.5714ZM402 123.714H415.714V137.429H402V123.714ZM443.143 123.714H456.857V137.429H443.143V123.714ZM456.857 123.714H470.571V137.429H456.857V123.714ZM539.107 178.571H552.821V192.286H539.107V178.571ZM539.107 192.286H552.821V206H539.107V192.286ZM525.393 192.286H539.107V206H525.393V192.286ZM525.393 178.571H539.107V192.286H525.393V178.571ZM511.679 192.286H525.393V206H511.679V192.286ZM511.679 178.571H525.393V192.286H511.679V178.571ZM497.964 178.571H511.679V192.286H497.964V178.571ZM497.964 164.857H511.679V178.571H497.964V164.857ZM497.964 151.143H511.679V164.857H497.964V151.143ZM497.964 137.429H511.679V151.143H497.964V137.429ZM497.964 123.714H511.679V137.429H497.964V123.714ZM497.964 110H511.679V123.714H497.964V110ZM511.679 151.143H525.393V164.857H511.679V151.143ZM511.679 164.857H525.393V178.571H511.679V164.857ZM511.679 137.429H525.393V151.143H511.679V137.429ZM511.679 123.714H525.393V137.429H511.679V123.714ZM511.679 68.8571H525.393V82.5714H511.679V68.8571ZM511.679 82.5714H525.393V96.2857H511.679V82.5714ZM511.679 96.2857H525.393V110H511.679V96.2857ZM511.679 110H525.393V123.714H511.679V110ZM497.964 96.2857H511.679V110H497.964V96.2857ZM484.25 110H497.964V123.714H484.25V110ZM525.393 110H539.107V123.714H525.393V110ZM539.107 110H552.821V123.714H539.107V110ZM497.964 82.5714H511.679V96.2857H497.964V82.5714ZM484.25 123.714H497.964V137.429H484.25V123.714ZM525.393 123.714H539.107V137.429H525.393V123.714ZM539.107 123.714H552.821V137.429H539.107V123.714ZM593.929 96.2857H607.643V110H593.929V96.2857ZM580.214 96.2857H593.929V110H580.214V96.2857ZM580.214 110H593.929V123.714H580.214V110ZM593.929 110H607.643V123.714H593.929V110ZM607.643 96.2857H621.357V110H607.643V96.2857ZM621.357 96.2857H635.071V110H621.357V96.2857ZM635.071 96.2857H648.786V110H635.071V96.2857ZM635.071 110H648.786V123.714H635.071V110ZM621.357 110H635.071V123.714H621.357V110ZM635.071 137.429H648.786V151.143H635.071V137.429ZM648.786 110H662.5V123.714H648.786V110ZM648.786 123.714H662.5V137.429H648.786V123.714ZM648.786 137.429H662.5V151.143H648.786V137.429ZM648.786 151.143H662.5V164.857H648.786V151.143ZM648.786 164.857H662.5V178.571H648.786V164.857ZM648.786 178.571H662.5V192.286H648.786V178.571ZM635.071 178.571H648.786V192.286H635.071V178.571ZM635.071 164.857H648.786V178.571H635.071V164.857ZM635.071 151.143H648.786V164.857H635.071V151.143ZM635.071 123.714H648.786V137.429H635.071V123.714ZM621.357 178.571H635.071V192.286H621.357V178.571ZM635.071 192.286H648.786V206H635.071V192.286ZM621.357 192.286H635.071V206H621.357V192.286ZM607.643 192.286H621.357V206H607.643V192.286ZM593.929 192.286H607.643V206H593.929V192.286ZM580.214 192.286H593.929V206H580.214V192.286ZM580.214 178.571H593.929V192.286H580.214V178.571ZM593.929 178.571H607.643V192.286H593.929V178.571ZM580.214 164.857H593.929V178.571H580.214V164.857ZM566.5 178.571H580.214V192.286H566.5V178.571ZM566.5 164.857H580.214V178.571H566.5V164.857ZM566.5 151.143H580.214V164.857H566.5V151.143ZM566.5 137.429H580.214V151.143H566.5V137.429ZM566.5 123.714H580.214V137.429H566.5V123.714ZM566.5 110H580.214V123.714H566.5V110ZM580.214 123.714H593.929V137.429H580.214V123.714ZM580.214 137.429H593.929V151.143H580.214V137.429ZM580.214 151.143H593.929V164.857H580.214V151.143ZM607.643 178.571H621.357V192.286H607.643V178.571ZM607.643 110H621.357V123.714H607.643V110Z" fill="black"/>
</svg>
