<svg width="273" height="196" viewBox="0 0 273 196" fill="none" xmlns="http://www.w3.org/2000/svg">
<path d="M112 0C121.24 0 130.48 0 140 0C140 2.31 140 4.62 140 7C142.31 7 144.62 7 147 7C147 9.31 147 11.62 147 14C151.62 14 156.24 14 161 14C161 11.69 161 9.38 161 7C170.24 7 179.48 7 189 7C189 9.31 189 11.62 189 14C191.31 14 193.62 14 196 14C196 16.31 196 18.62 196 21C198.31 21 200.62 21 203 21C203 25.62 203 30.24 203 35C205.31 35 207.62 35 210 35C210 37.31 210 39.62 210 42C212.31 42 214.62 42 217 42C217 44.31 217 46.62 217 49C221.62 49 226.24 49 231 49C231 51.31 231 53.62 231 56C233.31 56 235.62 56 238 56C238 58.31 238 60.62 238 63C240.31 63 242.62 63 245 63C245 72.24 245 81.48 245 91C242.69 91 240.38 91 238 91C238 93.31 238 95.62 238 98C240.31 98 242.62 98 245 98C245 102.62 245 107.24 245 112C247.31 112 249.62 112 252 112C252 116.62 252 121.24 252 126C254.31 126 256.62 126 259 126C259 128.31 259 130.62 259 133C261.31 133 263.62 133 266 133C266 135.31 266 137.62 266 140C268.31 140 270.62 140 273 140C273 146.93 273 153.86 273 161C270.69 161 268.38 161 266 161C266 163.31 266 165.62 266 168C263.69 168 261.38 168 259 168C259 170.31 259 172.62 259 175C254.38 175 249.76 175 245 175C245 177.31 245 179.62 245 182C235.76 182 226.52 182 217 182C217 179.69 217 177.38 217 175C210.07 175 203.14 175 196 175C196 177.31 196 179.62 196 182C193.69 182 191.38 182 189 182C189 184.31 189 186.62 189 189C184.38 189 179.76 189 175 189C175 191.31 175 193.62 175 196C144.97 196 114.94 196 84 196C84 193.69 84 191.38 84 189C79.38 189 74.76 189 70 189C70 186.69 70 184.38 70 182C67.69 182 65.38 182 63 182C63 179.69 63 177.38 63 175C56.07 175 49.14 175 42 175C42 177.31 42 179.62 42 182C37.38 182 32.76 182 28 182C28 179.69 28 177.38 28 175C23.38 175 18.76 175 14 175C14 172.69 14 170.38 14 168C11.69 168 9.38 168 7 168C7 163.38 7 158.76 7 154C4.69 154 2.38 154 0 154C0 149.38 0 144.76 0 140C2.31 140 4.62 140 7 140C7 135.38 7 130.76 7 126C9.31 126 11.62 126 14 126C14 123.69 14 121.38 14 119C16.31 119 18.62 119 21 119C21 116.69 21 114.38 21 112C23.31 112 25.62 112 28 112C28 107.38 28 102.76 28 98C30.31 98 32.62 98 35 98C35 88.76 35 79.52 35 70C32.69 70 30.38 70 28 70C28 65.38 28 60.76 28 56C25.69 56 23.38 56 21 56C21 49.07 21 42.14 21 35C23.31 35 25.62 35 28 35C28 32.69 28 30.38 28 28C30.31 28 32.62 28 35 28C35 25.69 35 23.38 35 21C53.48 21 71.96 21 91 21C91 18.69 91 16.38 91 14C95.62 14 100.24 14 105 14C105 11.69 105 9.38 105 7C107.31 7 109.62 7 112 7C112 4.69 112 2.38 112 0Z" fill="#00BCD4"/>
<path d="M224 91C228.62 91 233.24 91 238 91C238 93.31 238 95.62 238 98C240.31 98 242.62 98 245 98C245 102.62 245 107.24 245 112C247.31 112 249.62 112 252 112C252 116.62 252 121.24 252 126C254.31 126 256.62 126 259 126C259 128.31 259 130.62 259 133C261.31 133 263.62 133 266 133C266 135.31 266 137.62 266 140C268.31 140 270.62 140 273 140C273 146.93 273 153.86 273 161C270.69 161 268.38 161 266 161C266 163.31 266 165.62 266 168C263.69 168 261.38 168 259 168C259 170.31 259 172.62 259 175C254.38 175 249.76 175 245 175C245 177.31 245 179.62 245 182C235.76 182 226.52 182 217 182C217 179.69 217 177.38 217 175C210.07 175 203.14 175 196 175C196 177.31 196 179.62 196 182C193.69 182 191.38 182 189 182C189 184.31 189 186.62 189 189C184.38 189 179.76 189 175 189C175 191.31 175 193.62 175 196C144.97 196 114.94 196 84 196C84 193.69 84 191.38 84 189C79.38 189 74.76 189 70 189C70 186.69 70 184.38 70 182C67.69 182 65.38 182 63 182C63 179.69 63 177.38 63 175C56.07 175 49.14 175 42 175C42 177.31 42 179.62 42 182C37.38 182 32.76 182 28 182C28 179.69 28 177.38 28 175C23.38 175 18.76 175 14 175C14 172.69 14 170.38 14 168C11.69 168 9.38 168 7 168C7 163.38 7 158.76 7 154C4.69 154 2.38 154 0 154C0 149.38 0 144.76 0 140C2.31 140 4.62 140 7 140C7 135.38 7 130.76 7 126C9.31 126 11.62 126 14 126C14 123.69 14 121.38 14 119C16.31 119 18.62 119 21 119C21 121.31 21 123.62 21 126C23.31 126 25.62 126 28 126C28 128.31 28 130.62 28 133C32.62 133 37.24 133 42 133C42 135.31 42 137.62 42 140C55.86 140 69.72 140 84 140C84 142.31 84 144.62 84 147C88.62 147 93.24 147 98 147C98 149.31 98 151.62 98 154C104.93 154 111.86 154 119 154C119 151.69 119 149.38 119 147C121.31 147 123.62 147 126 147C126 144.69 126 142.38 126 140C128.31 140 130.62 140 133 140C133 142.31 133 144.62 133 147C135.31 147 137.62 147 140 147C140 149.31 140 151.62 140 154C142.31 154 144.62 154 147 154C147 151.69 147 149.38 147 147C149.31 147 151.62 147 154 147C154 149.31 154 151.62 154 154C156.31 154 158.62 154 161 154C161 151.69 161 149.38 161 147C163.31 147 165.62 147 168 147C168 149.31 168 151.62 168 154C170.31 154 172.62 154 175 154C175 151.69 175 149.38 175 147C177.31 147 179.62 147 182 147C182 144.69 182 142.38 182 140C186.62 140 191.24 140 196 140C196 137.69 196 135.38 196 133C198.31 133 200.62 133 203 133C203 130.69 203 128.38 203 126C205.31 126 207.62 126 210 126C210 123.69 210 121.38 210 119C212.31 119 214.62 119 217 119C217 116.69 217 114.38 217 112C214.69 112 212.38 112 210 112C210 109.69 210 107.38 210 105C212.31 105 214.62 105 217 105C217 102.69 217 100.38 217 98C219.31 98 221.62 98 224 98C224 95.69 224 93.38 224 91Z" fill="#009688"/>
<path d="M84 189C114.03 189 144.06 189 175 189C175 191.31 175 193.62 175 196C144.97 196 114.94 196 84 196C84 193.69 84 191.38 84 189Z" fill="black"/>
<path d="M196 21C198.31 21 200.62 21 203 21C203 25.62 203 30.24 203 35C205.31 35 207.62 35 210 35C210 37.31 210 39.62 210 42C212.31 42 214.62 42 217 42C217 44.31 217 46.62 217 49C210.07 49 203.14 49 196 49C196 51.31 196 53.62 196 56C193.69 56 191.38 56 189 56C189 53.69 189 51.38 189 49C186.69 49 184.38 49 182 49C182 44.38 182 39.76 182 35C186.62 35 191.24 35 196 35C196 30.38 196 25.76 196 21Z" fill="#009688"/>
<path d="M196 168C205.24 168 214.48 168 224 168C224 170.31 224 172.62 224 175C230.93 175 237.86 175 245 175C245 177.31 245 179.62 245 182C235.76 182 226.52 182 217 182C217 179.69 217 177.38 217 175C210.07 175 203.14 175 196 175C196 172.69 196 170.38 196 168Z" fill="black"/>
<path d="M35 21C53.48 21 71.96 21 91 21C91 23.31 91 25.62 91 28C72.52 28 54.04 28 35 28C35 25.69 35 23.38 35 21Z" fill="black"/>
<path d="M112 77C128.17 77 144.34 77 161 77C161 79.31 161 81.62 161 84C144.83 84 128.66 84 112 84C112 81.69 112 79.38 112 77Z" fill="black"/>
<path d="M42 168C51.24 168 60.48 168 70 168C70 172.62 70 177.24 70 182C67.69 182 65.38 182 63 182C63 179.69 63 177.38 63 175C56.07 175 49.14 175 42 175C42 172.69 42 170.38 42 168Z" fill="black"/>
<path d="M35 70C37.31 70 39.62 70 42 70C42 79.24 42 88.48 42 98C39.69 98 37.38 98 35 98C35 88.76 35 79.52 35 70Z" fill="black"/>
<path d="M238 63C240.31 63 242.62 63 245 63C245 72.24 245 81.48 245 91C242.69 91 240.38 91 238 91C238 81.76 238 72.52 238 63Z" fill="black"/>
<path d="M161 7C170.24 7 179.48 7 189 7C189 9.31 189 11.62 189 14C179.76 14 170.52 14 161 14C161 11.69 161 9.38 161 7Z" fill="black"/>
<path d="M112 0C121.24 0 130.48 0 140 0C140 2.31 140 4.62 140 7C130.76 7 121.52 7 112 7C112 4.69 112 2.38 112 0Z" fill="black"/>
<path d="M266 140C268.31 140 270.62 140 273 140C273 146.93 273 153.86 273 161C270.69 161 268.38 161 266 161C266 154.07 266 147.14 266 140Z" fill="black"/>
<path d="M91 70C97.93 70 104.86 70 112 70C112 72.31 112 74.62 112 77C105.07 77 98.14 77 91 77C91 74.69 91 72.38 91 70Z" fill="black"/>
<path d="M21 35C23.31 35 25.62 35 28 35C28 41.93 28 48.86 28 56C25.69 56 23.38 56 21 56C21 49.07 21 42.14 21 35Z" fill="black"/>
<path d="M175 182C179.62 182 184.24 182 189 182C189 184.31 189 186.62 189 189C184.38 189 179.76 189 175 189C175 186.69 175 184.38 175 182Z" fill="black"/>
<path d="M70 182C74.62 182 79.24 182 84 182C84 184.31 84 186.62 84 189C79.38 189 74.76 189 70 189C70 186.69 70 184.38 70 182Z" fill="black"/>
<path d="M28 175C32.62 175 37.24 175 42 175C42 177.31 42 179.62 42 182C37.38 182 32.76 182 28 182C28 179.69 28 177.38 28 175Z" fill="black"/>
<path d="M245 168C249.62 168 254.24 168 259 168C259 170.31 259 172.62 259 175C254.38 175 249.76 175 245 175C245 172.69 245 170.38 245 168Z" fill="black"/>
<path d="M14 168C18.62 168 23.24 168 28 168C28 170.31 28 172.62 28 175C23.38 175 18.76 175 14 175C14 172.69 14 170.38 14 168Z" fill="black"/>
<path d="M7 154C9.31 154 11.62 154 14 154C14 158.62 14 163.24 14 168C11.69 168 9.38 168 7 168C7 163.38 7 158.76 7 154Z" fill="black"/>
<path d="M0 140C2.31 140 4.62 140 7 140C7 144.62 7 149.24 7 154C4.69 154 2.38 154 0 154C0 149.38 0 144.76 0 140Z" fill="black"/>
<path d="M7 126C9.31 126 11.62 126 14 126C14 130.62 14 135.24 14 140C11.69 140 9.38 140 7 140C7 135.38 7 130.76 7 126Z" fill="black"/>
<path d="M245 112C247.31 112 249.62 112 252 112C252 116.62 252 121.24 252 126C249.69 126 247.38 126 245 126C245 121.38 245 116.76 245 112Z" fill="black"/>
<path d="M238 98C240.31 98 242.62 98 245 98C245 102.62 245 107.24 245 112C242.69 112 240.38 112 238 112C238 107.38 238 102.76 238 98Z" fill="black"/>
<path d="M28 98C30.31 98 32.62 98 35 98C35 102.62 35 107.24 35 112C32.69 112 30.38 112 28 112C28 107.38 28 102.76 28 98Z" fill="black"/>
<path d="M28 56C30.31 56 32.62 56 35 56C35 60.62 35 65.24 35 70C32.69 70 30.38 70 28 70C28 65.38 28 60.76 28 56Z" fill="black"/>
<path d="M217 49C221.62 49 226.24 49 231 49C231 51.31 231 53.62 231 56C226.38 56 221.76 56 217 56C217 53.69 217 51.38 217 49Z" fill="black"/>
<path d="M196 21C198.31 21 200.62 21 203 21C203 25.62 203 30.24 203 35C200.69 35 198.38 35 196 35C196 30.38 196 25.76 196 21Z" fill="black"/>
<path d="M147 14C151.62 14 156.24 14 161 14C161 16.31 161 18.62 161 21C156.38 21 151.76 21 147 21C147 18.69 147 16.38 147 14Z" fill="black"/>
<path d="M91 14C95.62 14 100.24 14 105 14C105 16.31 105 18.62 105 21C100.38 21 95.76 21 91 21C91 18.69 91 16.38 91 14Z" fill="black"/>
<path d="M189 175C191.31 175 193.62 175 196 175C196 177.31 196 179.62 196 182C193.69 182 191.38 182 189 182C189 179.69 189 177.38 189 175Z" fill="black"/>
<path d="M259 161C261.31 161 263.62 161 266 161C266 163.31 266 165.62 266 168C263.69 168 261.38 168 259 168C259 165.69 259 163.38 259 161Z" fill="black"/>
<path d="M168 140C170.31 140 172.62 140 175 140C175 142.31 175 144.62 175 147C172.69 147 170.38 147 168 147C168 144.69 168 142.38 168 140Z" fill="#009688"/>
<path d="M154 140C156.31 140 158.62 140 161 140C161 142.31 161 144.62 161 147C158.69 147 156.38 147 154 147C154 144.69 154 142.38 154 140Z" fill="#009688"/>
<path d="M140 140C142.31 140 144.62 140 147 140C147 142.31 147 144.62 147 147C144.69 147 142.38 147 140 147C140 144.69 140 142.38 140 140Z" fill="#009688"/>
<path d="M259 133C261.31 133 263.62 133 266 133C266 135.31 266 137.62 266 140C263.69 140 261.38 140 259 140C259 137.69 259 135.38 259 133Z" fill="black"/>
<path d="M175 133C177.31 133 179.62 133 182 133C182 135.31 182 137.62 182 140C179.69 140 177.38 140 175 140C175 137.69 175 135.38 175 133Z" fill="#009688"/>
<path d="M161 133C163.31 133 165.62 133 168 133C168 135.31 168 137.62 168 140C165.69 140 163.38 140 161 140C161 137.69 161 135.38 161 133Z" fill="#009688"/>
<path d="M147 133C149.31 133 151.62 133 154 133C154 135.31 154 137.62 154 140C151.69 140 149.38 140 147 140C147 137.69 147 135.38 147 133Z" fill="#009688"/>
<path d="M252 126C254.31 126 256.62 126 259 126C259 128.31 259 130.62 259 133C256.69 133 254.38 133 252 133C252 130.69 252 128.38 252 126Z" fill="black"/>
<path d="M14 119C16.31 119 18.62 119 21 119C21 121.31 21 123.62 21 126C18.69 126 16.38 126 14 126C14 123.69 14 121.38 14 119Z" fill="black"/>
<path d="M21 112C23.31 112 25.62 112 28 112C28 114.31 28 116.62 28 119C25.69 119 23.38 119 21 119C21 116.69 21 114.38 21 112Z" fill="black"/>
<path d="M231 91C233.31 91 235.62 91 238 91C238 93.31 238 95.62 238 98C235.69 98 233.38 98 231 98C231 95.69 231 93.38 231 91Z" fill="black"/>
<path d="M231 84C233.31 84 235.62 84 238 84C238 86.31 238 88.62 238 91C235.69 91 233.38 91 231 91C231 88.69 231 86.38 231 84Z" fill="#009688"/>
<path d="M84 63C86.31 63 88.62 63 91 63C91 65.31 91 67.62 91 70C88.69 70 86.38 70 84 70C84 67.69 84 65.38 84 63Z" fill="black"/>
<path d="M231 56C233.31 56 235.62 56 238 56C238 58.31 238 60.62 238 63C235.69 63 233.38 63 231 63C231 60.69 231 58.38 231 56Z" fill="black"/>
<path d="M154 56C156.31 56 158.62 56 161 56C161 58.31 161 60.62 161 63C158.69 63 156.38 63 154 63C154 60.69 154 58.38 154 56Z" fill="black"/>
<path d="M98 49C100.31 49 102.62 49 105 49C105 51.31 105 53.62 105 56C102.69 56 100.38 56 98 56C98 53.69 98 51.38 98 49Z" fill="black"/>
<path d="M210 42C212.31 42 214.62 42 217 42C217 44.31 217 46.62 217 49C214.69 49 212.38 49 210 49C210 46.69 210 44.38 210 42Z" fill="black"/>
<path d="M203 35C205.31 35 207.62 35 210 35C210 37.31 210 39.62 210 42C207.69 42 205.38 42 203 42C203 39.69 203 37.38 203 35Z" fill="black"/>
<path d="M28 28C30.31 28 32.62 28 35 28C35 30.31 35 32.62 35 35C32.69 35 30.38 35 28 35C28 32.69 28 30.38 28 28Z" fill="black"/>
<path d="M189 14C191.31 14 193.62 14 196 14C196 16.31 196 18.62 196 21C193.69 21 191.38 21 189 21C189 18.69 189 16.38 189 14Z" fill="black"/>
<path d="M140 7C142.31 7 144.62 7 147 7C147 9.31 147 11.62 147 14C144.69 14 142.38 14 140 14C140 11.69 140 9.38 140 7Z" fill="black"/>
<path d="M105 7C107.31 7 109.62 7 112 7C112 9.31 112 11.62 112 14C109.69 14 107.38 14 105 14C105 11.69 105 9.38 105 7Z" fill="black"/>
</svg>
